<svg width="69" height="44" viewBox="0 0 69 44" fill="none" xmlns="http://www.w3.org/2000/svg">
<path d="M17.9248 5.46868L22.5049 19.1432C22.4811 19.2085 22.4569 19.2753 22.4325 19.3429C22.3281 19.6314 22.2183 19.935 22.1099 20.192L17.3559 31.196C17.2295 30.9436 16.6562 29.388 15.9566 27.0239C15.9566 27.0239 13.8109 20.3485 13.1578 18.4015C12.2202 15.6059 10.639 10.7526 9.5195 6.99775C9.27931 6.19215 9.06333 5.43311 8.8728 4.76354C8.49627 3.44031 8.21917 2.4665 8.05125 2.17329C7.82997 1.70016 7.57708 1.27435 7.29257 0.895859C7.03968 0.580445 6.77099 0.359655 6.48648 0.233489C6.20198 0.107323 5.74152 0.0445301 5.46165 0.0445017C5.42802 0.0444983 5.36409 0.0432119 5.27567 0.0414329C4.62822 0.0284063 2.66806 -0.0110319 1.68306 0.233467C-0.0229768 1.07017 -0.0117749 1.82771 0.00253982 2.79576C0.00387422 2.886 0.00523567 2.97807 0.00523567 3.07221C0.279872 4.06398 0.279872 4.06399 0.716492 5.34319L6.58083 22.852L13.1578 41.6817C13.4617 42.2881 14.2835 42.7981 14.9501 43.2118C15.0463 43.2715 15.1393 43.3292 15.227 43.3849C15.9541 43.795 16.7127 44 17.503 44H17.9772C18.7359 44 19.4629 43.795 20.1584 43.3849C20.8855 42.9434 21.4228 42.3756 21.7706 41.6817L26.3421 30.2865L30.3661 41.4739C30.67 42.0803 31.2389 42.59 31.9054 43.0037C32.0017 43.0634 32.4652 43.2818 32.885 43.4209C33.5999 43.6577 33.9211 43.7922 34.7113 43.7922H35.1855C35.9442 43.7922 36.6713 43.5872 37.3667 43.1771C38.0938 42.7355 38.6312 42.1678 38.9789 41.4739L42.7661 30.5562L47.2294 41.6817C47.5772 42.3756 48.1145 42.9434 48.8416 43.3849C49.5371 43.795 50.2641 44 51.0228 44H51.497C52.2873 44 53.0459 43.795 53.773 43.3849C53.8607 43.3292 53.9537 43.2715 54.05 43.2118C54.7165 42.7981 55.5383 42.2881 55.8422 41.6817L62.4192 22.852L68.2835 5.34319C68.7086 4.20306 68.8486 3.5077 68.9948 3.07221C68.9948 2.97807 68.9961 2.886 68.9975 2.79576C69.0118 1.82771 69.023 1.07017 67.3169 0.233467C66.3319 -0.0110319 64.3718 0.0284063 63.7243 0.0414329C63.6359 0.0432119 63.572 0.0444983 63.5383 0.0445017C63.2585 0.0445301 62.798 0.107323 62.5135 0.233489C62.229 0.359655 61.9603 0.580445 61.7074 0.895859C61.4229 1.27435 61.17 1.70016 60.9488 2.17329C60.7808 2.4665 60.5037 3.44032 60.1272 4.76356C59.9367 5.43313 59.7207 6.19216 59.4805 6.99775C58.361 10.7526 56.7798 15.6059 55.8422 18.4015C55.1891 20.3485 53.0434 27.0239 53.0434 27.0239C52.3438 29.388 51.7705 30.9436 51.6441 31.196L46.8901 20.192C46.7817 19.935 46.6724 19.633 46.5681 19.3445C46.5632 19.3311 46.5584 19.3177 46.5536 19.3043L51.4965 4.61983C51.9163 3.5077 52.0563 2.81186 52.2078 2.20929C52.2078 1.10534 51.6364 0.308891 50.517 0.0304722C49.3975 0.0309649 47.5911 0.0291417 46.6763 0.0304568C46.5971 0.0305707 46.5243 0.0306754 46.4588 0.0306754C45.6369 0.0306754 45.2086 0.0306765 44.6396 0.882295C44.5313 1.08049 44.4009 1.44095 44.2619 1.82533C44.1576 2.11385 44.0484 2.5549 43.9399 2.81185L34.5642 31.3214C34.4378 31.0691 33.8646 29.5135 33.1649 27.1493C33.1649 27.1493 31.0192 20.474 30.3662 18.527C29.4285 15.7314 27.8473 10.8781 26.7278 7.12324C26.4877 6.31775 26.2717 5.55879 26.0812 4.88928C25.7047 3.56605 25.4072 2.61437 25.2596 2.29878C25.0383 1.82565 24.7733 1.24388 24.4888 0.86538C24.2359 0.549966 23.979 0.346112 23.6945 0.219946C23.41 0.0937797 22.9495 0.0309868 22.6697 0.0309585C22.636 0.0309551 22.5721 0.0296687 22.4837 0.0278897C21.8362 0.0148631 19.8764 -0.077577 18.8914 0.166922C17.1853 1.00363 17.1965 1.76117 17.2109 2.72922C17.2122 2.81946 17.2136 2.91153 17.2136 3.00566C17.3521 3.59381 17.492 4.34213 17.9248 5.46868Z" fill="#484856"/>
</svg>
