<svg width="433" height="161" viewBox="0 0 433 161" fill="none" xmlns="http://www.w3.org/2000/svg">
<path d="M65.6135 160.979C64.6849 161.081 63.8194 160.812 63.0171 160.17C62.7765 159.884 62.5359 159.597 62.2952 159.311C62.0546 159.024 61.8139 158.738 61.5733 158.451C60.4046 156.389 59.6889 154.172 59.4261 151.801L58.5504 148.14C58.0808 146.731 57.6629 145.316 57.2966 143.896C56.9302 142.475 56.4148 141.123 55.7503 139.84L54.5303 137.314C54.5074 137.107 54.433 136.907 54.307 136.712C54.2841 136.506 54.2097 136.305 54.0836 136.111L50.8535 128.171C50.7275 127.976 50.5958 127.73 50.4583 127.432C50.424 127.123 50.2923 126.876 50.063 126.693C49.6849 126.108 49.3584 125.518 49.0835 124.923C48.9003 124.212 48.6655 123.508 48.3792 122.809C48.2189 122.305 48.0643 121.852 47.9154 121.451C47.755 120.947 47.5431 120.449 47.2796 119.956C47.0047 119.36 46.7583 119.022 46.5405 118.942C46.3113 118.759 45.847 118.81 45.1476 119.096C44.6431 119.256 44.087 119.422 43.4793 119.594C42.9634 119.651 42.4589 119.811 41.9659 120.074C41.5646 120.223 41.0601 120.383 40.4524 120.555C39.9365 120.612 39.4263 120.721 38.9218 120.881L36.8064 121.585C36.3019 121.745 35.7516 121.962 35.1553 122.237C34.6508 122.397 34.1406 122.506 33.6247 122.563L30.8902 123.335C30.0876 123.633 29.2334 123.936 28.3276 124.245C27.4218 124.554 26.5676 124.857 25.765 125.155C23.3572 126.048 20.9322 126.786 18.4901 127.369C17.6875 127.666 17.2632 128.079 17.2172 128.606C17.114 128.617 17.0681 128.674 17.0795 128.777C16.6433 130.496 16.1038 132.225 15.4612 133.966C14.9103 135.593 14.3136 137.276 13.671 139.017C13.5103 139.453 13.3497 139.888 13.189 140.323C13.1201 140.644 13.0053 141.022 12.8447 141.457C12.7643 141.675 12.6897 141.944 12.6208 142.265C12.5405 142.482 12.4602 142.7 12.3798 142.917C11.8407 143.708 11.6283 144.618 11.7426 145.649C11.708 146.279 11.5702 146.921 11.3292 147.574C11.0768 148.123 10.8244 148.673 10.5719 149.223C10.503 149.544 10.3138 149.721 10.0043 149.755C9.60297 149.904 9.20738 150.105 8.8175 150.356C8.42763 150.608 7.98616 150.866 7.4931 151.129C7.19498 151.267 6.88543 151.301 6.56446 151.232C6.34666 151.152 6.07728 151.077 5.7563 151.008C5.52708 150.825 5.30929 150.745 5.10293 150.767C3.95649 150.79 3.05675 150.211 2.40371 149.031C1.39541 147.473 0.645068 145.886 0.152683 144.27C0.00379091 143.869 -0.0362047 143.509 0.0326962 143.188C0.20478 142.856 0.325272 142.529 0.394172 142.209C0.967559 141.728 1.27728 141.224 1.32332 140.697L1.30618 140.542C1.15763 139.202 1.27845 137.936 1.66867 136.745C2.15064 135.439 2.53513 134.196 2.82216 133.017C2.95997 132.375 3.14936 131.728 3.39034 131.075C3.63133 130.422 3.87231 129.769 4.1133 129.116C4.44603 128.349 4.6813 127.645 4.81911 127.003C5.04866 126.247 5.22663 125.497 5.353 124.752C5.57113 123.893 5.48543 123.12 5.09589 122.433C4.82096 121.837 4.65492 121.281 4.59779 120.766C4.52922 120.147 4.51225 119.523 4.54687 118.893C4.42117 117.758 4.72534 116.733 5.45938 115.817C5.81498 115.256 6.182 114.798 6.56045 114.443C7.03065 113.973 7.44927 113.51 7.81629 113.052C8.64209 112.021 9.22724 110.704 9.57174 109.1C9.83591 107.714 9.99691 106.339 10.0547 104.976C10.2043 103.499 10.3596 102.072 10.5206 100.698C10.5784 99.3346 10.6419 98.023 10.7111 96.7629C10.8721 95.3884 11.0388 94.0653 11.2112 92.7938C11.2573 92.2669 11.3091 91.7915 11.3665 91.3677C11.5158 90.8293 11.6191 90.3482 11.6766 89.9244C11.8947 89.0653 12.1186 88.2578 12.3481 87.5018C12.5662 86.6428 12.6812 85.7951 12.6929 84.9589C12.8536 84.5236 12.8136 84.1627 12.573 83.8763C12.4126 83.3722 12.3612 82.9082 12.4187 82.4844C12.5793 82.0491 12.6884 81.6196 12.7459 81.1958C12.9754 80.4398 13.1018 79.6952 13.125 78.9621C13.2514 78.2175 13.4293 77.4673 13.6589 76.7113C14.0263 75.3139 14.319 74.1856 14.5371 73.3265C14.847 72.353 15.0939 71.282 15.2777 70.1136C15.4155 69.4721 15.5591 68.8822 15.7083 68.3439C15.9493 67.691 16.0871 67.0495 16.1217 66.4195C16.3284 65.4573 16.4835 64.5008 16.587 63.5501C16.6791 62.4962 16.6737 61.5053 16.5709 60.5774C16.6858 59.7297 16.8293 59.1398 17.0014 58.8077C17.4031 57.7196 17.925 56.7747 18.5673 55.973C19.3128 55.16 20.0067 54.3526 20.649 53.551C21.1306 53.1846 21.6236 52.9213 22.1281 52.7611C22.6212 52.4978 23.1428 52.4922 23.693 52.7445C24.1286 52.905 24.398 52.9795 24.5012 52.9681C25.4184 52.7623 26.2151 52.8828 26.8913 53.3298C27.5676 53.7768 28.1521 54.3383 28.6448 55.0144C28.874 55.1978 29.0573 55.4384 29.1948 55.7363C29.3323 56.0342 29.464 56.2805 29.5901 56.4753C30.1974 57.243 30.5468 58.0393 30.6382 58.8641C30.6839 59.2765 30.7869 59.7348 30.9472 60.2389C31.0961 60.6399 31.2507 61.0924 31.411 61.5965C31.7892 62.1809 32.2878 62.4388 32.9069 62.3703C32.9986 62.2558 33.1018 62.2444 33.2164 62.336C33.331 62.4277 33.394 62.5251 33.4055 62.6282C33.9899 63.1897 34.219 63.8428 34.0926 64.5873C33.9777 65.435 34.0175 66.2655 34.2121 67.0789C34.4985 67.7778 34.7905 68.5282 35.0883 69.3302C35.6153 70.3156 36.1423 71.3009 36.6693 72.2863C37.1963 73.2717 37.7233 74.257 38.2503 75.2424C38.8919 76.3194 39.5336 77.3964 40.1752 78.4735C40.8168 79.5505 41.4068 80.6333 41.9452 81.7217C42.6211 83.1081 43.297 84.4944 43.9729 85.8808C44.752 87.2557 45.5827 88.6249 46.4649 89.9884L47.1178 91.6382C47.2667 92.0392 47.4156 92.4402 47.5645 92.8412C47.8166 93.2308 48.017 93.6261 48.1659 94.0271C48.4066 94.3135 48.5956 94.6057 48.7331 94.9036C48.9738 95.1901 49.2087 95.425 49.4379 95.6084C50.0338 96.273 50.4291 97.012 50.6237 97.8254C51.0475 98.8222 51.6147 99.6987 52.3252 100.455C52.5658 100.742 52.8925 100.862 53.3052 100.816C54.8301 100.439 56.3607 100.113 57.897 99.8384C59.4219 99.4609 60.9354 98.9804 62.4374 98.3967C63.5381 97.9618 64.6044 97.6872 65.6362 97.573C67.5967 97.3561 69.4767 97.8264 71.2762 98.9841C73.4081 100.314 74.657 102.158 75.023 104.518C75.0801 105.034 75.1774 105.441 75.3149 105.738C75.3949 106.46 75.2514 107.05 74.8844 107.508C74.8155 107.829 74.6434 108.161 74.3681 108.505C74.196 108.837 74.0239 109.169 73.8519 109.501C73.6912 109.936 73.5191 110.268 73.3356 110.497L72.4927 111.374C72.4124 111.591 72.2861 111.866 72.1141 112.198C71.9305 112.427 71.6897 112.61 71.3916 112.748C70.9903 112.897 70.5947 113.097 70.2048 113.349C69.8035 113.498 69.3449 113.6 68.829 113.658C66.9946 114.069 65.3379 114.2 63.8591 114.051L61.3827 114.325C61.1764 114.348 60.8782 114.485 60.4884 114.737C60.0985 114.989 59.9207 115.27 59.955 115.579L60.0235 116.198C60.4359 117.091 60.7509 118.048 60.9683 119.067C61.2775 119.973 61.6842 120.815 62.1883 121.594C62.2341 122.006 62.3829 122.407 62.635 122.797C63.2538 123.668 63.7751 124.601 64.1989 125.598C64.6113 126.492 64.9778 127.443 65.2984 128.451C65.3213 128.657 65.4702 129.058 65.7451 129.654C66.1347 130.341 66.4783 131.086 66.7761 131.888C67.0625 132.587 67.3029 133.343 67.4975 134.157C67.5661 134.775 67.7837 135.325 68.1504 135.806C68.666 136.689 69.0784 137.582 69.3876 138.487C69.6968 139.392 69.9601 140.355 70.1776 141.374C70.2922 141.466 70.3667 141.667 70.4009 141.976C70.4238 142.182 70.4982 142.383 70.6243 142.577C71.2659 143.654 71.7642 144.852 72.1191 146.169C72.4626 147.384 72.8577 148.592 73.3043 149.795C73.5793 150.391 73.751 150.998 73.8196 151.617C74.0027 152.327 74.1343 153.043 74.2143 153.765C74.2715 154.28 74.1795 154.865 73.9385 155.517C73.6633 155.861 73.5256 156.033 73.5256 156.033C72.918 156.204 72.5968 156.605 72.5622 157.235L72.2007 158.215C72.0401 158.65 71.7591 158.942 71.3578 159.091C70.9451 159.136 70.6011 159.331 70.3258 159.674C69.9588 160.133 69.4141 160.402 68.6919 160.482C68.2791 160.527 67.7632 160.584 67.1441 160.653C66.6282 160.71 66.118 160.819 65.6135 160.979ZM22.0908 108.967C22.6985 108.795 23.3061 108.624 23.9138 108.452C24.6246 108.269 25.3871 108.08 26.2011 107.886C26.7056 107.726 27.3649 107.548 28.1789 107.354C28.9929 107.16 29.7554 106.971 30.4662 106.788C31.1657 106.502 31.8765 106.319 32.5988 106.239C33.3096 106.056 34.0205 105.873 34.7313 105.69C35.3276 105.415 35.9353 105.243 36.5544 105.175C37.162 105.003 37.7697 104.832 38.3774 104.66C39.2831 104.351 39.5872 103.795 39.2894 102.993C39.0948 102.18 38.797 101.378 38.396 100.588C38.0868 99.6824 37.5368 98.9605 36.7459 98.4218C36.5167 98.2385 36.3792 97.9406 36.3335 97.5282L36.2821 97.0642C35.9843 96.2622 35.6407 95.5175 35.2511 94.83C34.9533 94.0281 34.6097 93.2833 34.2201 92.5959C33.9224 91.7939 33.5844 91.1007 33.2063 90.5163C32.9199 89.8175 32.582 89.1243 32.1925 88.4368L29.7181 83.0748C29.3286 82.3873 28.939 81.6999 28.5495 81.0124C28.2631 80.3135 27.9768 79.6147 27.6904 78.9158L27.1575 78.3485L26.6932 78.3999L26.4351 78.8981C26.0906 80.5018 25.6429 82.1168 25.092 83.7433C24.6443 85.3583 24.2597 87.0708 23.938 88.8806C23.9609 89.0868 23.9378 89.3503 23.8689 89.671C23.8 89.9918 23.7311 90.3125 23.6622 90.6332C23.3638 91.7099 23.0768 92.8897 22.8011 94.1726C22.6287 95.4441 22.5079 96.7099 22.4387 97.97C22.4155 98.7031 22.3923 99.4362 22.3691 100.169C22.3345 100.799 22.254 101.487 22.1276 102.231L21.4031 108.417C21.3114 108.531 21.3801 108.68 21.6093 108.864C21.8271 108.944 21.9876 108.978 22.0908 108.967Z" fill="#CBAE7C"/>
<path d="M104.177 145.753C103.386 146.153 102.446 146.153 101.357 145.752L98.1073 144.702C97.5685 144.553 97.1044 144.135 96.7148 143.447L96.1477 142.571C95.8842 142.078 95.5862 141.746 95.2538 141.574C94.6922 141.219 94.2511 140.537 93.9304 139.529C93.6098 138.52 93.3407 137.507 93.1233 136.487C92.9058 135.467 92.6884 134.448 92.4709 133.428C92.2763 132.615 92.1333 131.796 92.0419 130.971C91.9505 130.146 91.8648 129.373 91.7848 128.651L91.8196 127.551C91.9688 127.013 92.0148 126.486 91.9577 125.97C91.9006 125.455 91.8491 124.991 91.8034 124.579L88.6838 96.4315C88.7301 94.9652 88.6733 93.5104 88.5134 92.0669C88.342 90.5204 88.1763 89.0254 88.0163 87.5819C87.9595 86.1271 87.8568 84.7295 87.7082 83.3892C87.5483 81.9457 87.2908 80.5652 86.9359 79.2477C86.7756 78.7437 86.6611 78.1823 86.5926 77.5637C86.524 76.9451 86.4554 76.3264 86.3869 75.7078C86.284 74.7799 86.1812 73.852 86.0783 72.924C85.9755 71.9961 85.7695 71.0796 85.4603 70.1745L85.4088 69.7106C85.2488 68.2671 84.9914 66.8867 84.6365 65.5692C84.3733 64.1371 84.1159 62.7567 83.8641 61.4278C83.6695 60.6143 83.4806 59.8525 83.2975 59.1422C83.1143 58.4319 82.8795 57.7273 82.5932 57.0284C82.4443 56.6274 82.347 56.2207 82.3013 55.8083C82.2555 55.3959 82.2098 54.9835 82.1641 54.5711C82.0841 53.8494 82.113 53.1678 82.2508 52.5263C82.3772 51.7818 82.5093 51.0888 82.6471 50.4473C82.7274 50.2297 82.9511 49.8918 83.3181 49.4337C83.5016 49.2047 83.6909 49.0272 83.8858 48.9013C84.0807 48.7753 84.2241 48.6551 84.3158 48.5406C84.8435 47.6472 85.629 47.195 86.6722 47.184C86.89 47.2642 87.1939 47.1784 87.5837 46.9265C88.0539 46.457 88.5126 46.3541 88.9596 46.6177C89.292 46.7897 89.8079 46.7326 90.5073 46.4464C90.8169 46.4122 91.0862 46.4868 91.3155 46.6701C91.6707 47.0483 92.1177 47.3119 92.6565 47.461C93.1953 47.6101 93.5907 47.8795 93.8428 48.2691C94.1866 48.5441 94.5304 48.8192 94.8743 49.0942C95.1149 49.3807 95.3556 49.6672 95.5962 49.9536C95.9286 50.1256 96.1177 50.4178 96.1634 50.8302C96.3123 51.2312 96.358 51.6436 96.3005 52.0674C96.3348 52.3767 96.3748 52.7376 96.4205 53.15C96.5233 54.0779 96.6835 55.0517 96.9009 56.0713C97.2101 56.9764 97.4678 57.8872 97.6738 58.8037C97.9944 59.8119 98.2692 60.8773 98.4981 62C98.7155 63.0196 98.9387 64.0908 99.1676 65.2135L99.339 66.7601C99.6254 67.4589 99.8085 68.1692 99.8885 68.891C99.9685 69.6127 100.1 70.3287 100.283 71.039L100.3 71.1936C100.541 72.4195 100.781 73.6453 101.021 74.8711C101.262 76.0969 101.502 77.3227 101.742 78.5485C101.903 79.0526 102.017 79.614 102.086 80.2326C102.143 80.7481 102.2 81.2636 102.257 81.7791L106.817 122.917C106.919 123.845 107.074 124.767 107.28 125.684C107.589 126.589 107.841 127.448 108.036 128.262C108.093 128.777 108.431 129.001 109.05 128.932C110.001 129.035 110.878 128.938 111.681 128.641C112.793 128.309 113.865 128.086 114.897 127.972C116.032 127.846 117.167 127.721 118.302 127.595C119.437 127.469 120.52 127.35 121.552 127.235C122.676 127.007 123.748 126.784 124.768 126.566L126.471 126.378C127.308 126.39 128.041 126.413 128.672 126.448C129.394 126.368 130.116 126.288 130.839 126.208C131.974 126.082 133.114 126.008 134.261 125.986C135.499 125.849 136.691 125.769 137.838 125.746C138.675 125.758 139.506 125.718 140.331 125.627C141.26 125.524 142.189 125.421 143.117 125.319L143.891 125.233C145.943 124.901 147.858 125.211 149.634 126.163C150.391 126.392 150.964 126.851 151.354 127.538C151.606 127.928 151.806 128.323 151.955 128.724C152.196 129.01 152.396 129.406 152.557 129.91C152.705 130.311 152.803 130.718 152.848 131.13C152.986 131.428 153.129 131.777 153.278 132.178C153.69 133.072 153.701 134.114 153.311 135.306C153.242 135.626 153.173 135.947 153.105 136.268C153.036 136.589 152.915 136.915 152.743 137.247C152.571 137.579 152.342 137.866 152.055 138.106C152.055 138.106 151.86 138.232 151.47 138.484C150.725 139.297 149.847 139.864 148.838 140.184C147.933 140.493 146.924 140.813 145.811 141.145L144.247 141.162C142.642 140.818 141.06 140.68 139.501 140.748C139.076 140.69 138.606 140.69 138.09 140.747C137.563 140.701 137.041 140.707 136.526 140.764C135.803 140.844 135.081 140.924 134.359 141.004C133.625 140.98 132.84 140.963 132.003 140.951L130.438 140.968C129.521 141.174 128.598 141.328 127.669 141.431C126.729 141.43 125.8 141.533 124.883 141.739C124.47 141.785 124.058 141.83 123.645 141.876C123.221 141.819 122.802 141.813 122.39 141.859C121.564 141.95 120.739 142.041 119.913 142.133C119.191 142.213 118.429 142.401 117.626 142.699C117.225 142.848 116.72 143.008 116.113 143.179C115.597 143.236 115.081 143.294 114.565 143.351C113.028 143.625 111.498 143.951 109.973 144.328C108.437 144.603 106.963 144.975 105.553 145.444C105.255 145.581 104.796 145.684 104.177 145.753Z" fill="#CBAE7C"/>
<path d="M198.979 137.923C197.936 137.934 196.887 137.894 195.832 137.802C194.892 137.801 193.935 137.646 192.96 137.337L188.937 136.373C187.538 136.006 186.237 135.576 185.033 135.083C183.818 134.487 182.603 133.891 181.388 133.294C180.815 132.836 180.248 132.429 179.686 132.074C179.113 131.615 178.546 131.208 177.984 130.853C177.068 130.12 176.151 129.386 175.234 128.653C174.306 127.816 173.423 126.922 172.587 125.971L168.238 120.66C167.149 119.319 166.158 117.916 165.264 116.449C164.359 114.879 163.557 113.298 162.858 111.706C161.381 108.738 160.476 105.76 160.145 102.77L159.87 100.295C159.585 97.7175 159.46 95.1744 159.495 92.6657C159.473 90.5808 159.731 88.6735 160.271 86.944C160.569 85.8673 160.816 84.7963 161.011 83.731C161.207 82.6657 161.459 81.6463 161.769 80.6727L162.113 79.5387C162.171 78.1755 162.504 76.9385 163.112 75.8275C163.709 74.6135 164.208 73.4624 164.609 72.3742C164.931 71.5037 165.315 70.7306 165.762 70.0549C166.198 69.2761 166.583 68.503 166.915 67.7356C167.087 67.4035 167.317 67.1172 167.604 66.8767C167.879 66.5332 168.102 66.1953 168.275 65.8632C168.458 65.6341 168.584 65.3592 168.653 65.0385C168.814 64.6033 168.929 64.2253 168.998 63.9045C169.17 63.5724 169.485 63.12 169.944 62.5474C170.529 62.1696 171.016 61.3851 171.406 60.1938C171.567 59.7586 171.739 59.4265 171.923 59.1974C172.485 58.6134 172.932 57.9377 173.265 57.1703C173.701 56.3915 174.194 55.6585 174.744 54.9714C175.111 54.5133 175.255 53.9234 175.175 53.2017C175.118 52.6861 175.066 52.2222 175.021 51.8098C175.067 51.2828 175.015 50.8189 174.866 50.4179C174.706 49.9138 174.809 49.4327 175.176 48.9746C175.36 48.7456 175.486 48.4707 175.555 48.15C175.624 47.8292 175.693 47.5085 175.762 47.1878C175.957 46.1225 176.685 45.1548 177.947 44.2846C178.13 44.0556 178.377 43.9239 178.686 43.8897C179.088 43.7409 179.437 43.5978 179.735 43.4605C180.423 43.0712 181.243 42.9283 182.195 43.0318C182.619 43.0892 182.986 43.1008 183.295 43.0665C183.593 42.9292 183.891 42.7918 184.19 42.6545C184.579 42.4026 184.923 42.208 185.222 42.0706C185.623 41.9218 185.973 41.7788 186.271 41.6414C187.658 40.966 189.16 40.852 190.776 41.2993C192.496 41.7353 193.802 42.6865 194.696 44.1532C194.96 44.6458 195.223 45.1385 195.487 45.6312C195.75 46.1239 195.962 46.6222 196.122 47.1263C196.454 48.2376 196.511 49.2228 196.293 50.0819C196.133 50.5171 196.058 50.7863 196.069 50.8894C196.012 51.3133 196.155 51.6627 196.499 51.9377C196.74 52.2242 197.026 52.4534 197.358 52.6254C198.608 53.5308 199.805 54.4419 200.952 55.3588C202.086 56.1725 203.181 57.0951 204.235 58.1264C205.152 58.8599 205.92 59.6621 206.539 60.5329C207.249 61.2892 207.919 62.1543 208.55 63.1283C208.813 63.6209 209.134 64.1595 209.512 64.7438C209.879 65.2251 210.245 65.7063 210.612 66.1876C211.231 67.0584 211.752 67.9922 212.176 68.989C212.703 69.9744 213.23 70.9597 213.757 71.9451L213.774 72.0997C214.06 72.7986 214.301 73.5547 214.496 74.3682C214.782 75.067 215.177 75.8061 215.681 76.5852C216.071 77.2727 216.415 78.0174 216.712 78.8194C216.999 79.5183 217.291 80.2687 217.588 81.0707C217.898 81.9758 218.207 82.8809 218.516 83.7859C218.929 84.6796 219.238 85.5847 219.444 86.5012C219.593 86.9022 219.742 87.3032 219.89 87.7042C220.028 88.0021 220.171 88.3515 220.32 88.7525C220.629 89.6576 220.938 90.5627 221.248 91.4678C221.557 92.3729 221.814 93.2837 222.02 94.2002L222.605 95.2314C222.88 95.8271 223.178 96.6291 223.498 97.6373C223.956 98.9434 224.26 100.267 224.408 101.607C224.66 102.936 224.814 104.328 224.871 105.783C224.951 106.504 224.962 107.077 224.905 107.501C224.526 109.735 223.997 112.037 223.32 114.408C222.987 115.175 222.655 115.943 222.322 116.71C221.978 117.374 221.639 118.09 221.307 118.858L220.154 121.177C219.741 122.162 219.264 123.05 218.725 123.84C217.876 125.604 216.798 127.184 215.491 128.581C214.183 129.978 212.767 131.335 211.242 132.652C207.939 135.836 203.851 137.592 198.979 137.923ZM196.663 122.681C198.83 122.441 200.618 121.617 202.029 120.208C202.488 119.636 202.952 119.115 203.422 118.645C203.984 118.061 204.443 117.488 204.799 116.927C206.519 114.545 207.816 112.106 208.688 109.609L208.981 108.011C208.981 106.132 208.776 104.276 208.364 102.443L206.869 97.4424C206.411 96.1363 206.01 94.876 205.667 93.6616C205.312 92.3441 204.86 91.0896 204.31 89.898C203.92 89.2106 203.754 88.6549 203.812 88.2311C203.858 87.7042 203.8 87.1887 203.64 86.6846C203.48 86.1805 203.268 85.6821 203.004 85.1894C202.546 83.8833 202.037 82.583 201.475 81.2883C200.914 79.9936 200.353 78.699 199.791 77.4043C199.654 77.1064 199.517 76.8085 199.379 76.5106C199.242 76.2127 199.104 75.9148 198.967 75.617C198.084 74.2535 197.156 72.9472 196.182 71.6982C195.208 70.4492 194.143 69.3148 192.985 68.2948C192.4 67.7333 191.77 67.229 191.094 66.782C190.406 66.2319 189.724 65.7334 189.048 65.2864C188.922 65.0916 188.756 65.0056 188.549 65.0284C188.435 64.9368 188.269 64.8508 188.051 64.7705C187.696 64.3924 187.289 64.4896 186.83 65.0622C186.371 65.6348 185.866 66.2647 185.316 66.9518C184.868 67.6275 184.421 68.3032 183.974 68.9789C183.538 69.7577 183.05 70.5423 182.511 71.3325C182.075 72.1113 181.639 72.8901 181.203 73.6689C180.584 74.6768 180.016 75.6789 179.5 76.6753C178.984 77.6718 178.467 78.6682 177.951 79.6647C176.173 83.4099 174.899 87.4647 174.129 91.8289C173.991 92.4704 173.94 92.9458 173.974 93.2551C173.951 93.9882 173.928 94.7214 173.904 95.4545C173.984 96.1762 174.07 96.9495 174.162 97.7743L174.299 99.0115C174.436 99.3094 174.522 99.613 174.556 99.9223C174.591 100.232 174.676 100.535 174.814 100.833C174.951 102.07 175.409 103.376 176.188 104.751C177.242 106.722 178.394 108.63 179.643 110.475C180.892 112.319 182.284 114.044 183.82 115.648C184.175 116.026 184.53 116.405 184.885 116.783C185.344 117.149 185.751 117.522 186.106 117.9C187.149 118.828 188.232 119.648 189.355 120.358C190.581 121.058 191.796 121.654 193 122.147C194.307 122.628 195.528 122.806 196.663 122.681Z" fill="#CBAE7C"/>
<path d="M306.662 126.633C305.745 126.838 304.868 126.936 304.031 126.924C303.194 126.912 302.323 126.591 301.418 125.961C301.189 125.777 300.856 125.605 300.421 125.445C299.87 125.192 299.521 124.866 299.372 124.465C299.223 124.064 298.982 123.777 298.65 123.605C298.306 123.33 298.06 122.992 297.911 122.591C297.773 122.294 297.688 121.99 297.653 121.681C297.711 121.257 297.722 120.89 297.688 120.581C297.654 120.272 297.568 119.968 297.43 119.67C297.396 119.361 297.362 119.052 297.328 118.742C296.847 117.23 296.366 115.718 295.885 114.205C295.392 112.59 294.957 111.02 294.579 109.497C294.396 108.786 294.213 108.076 294.03 107.366C293.847 106.655 293.664 105.945 293.48 105.235C293.229 103.906 292.925 102.583 292.57 101.265C292.319 99.9363 292.015 98.6131 291.66 97.2956C291.363 96.4937 291.18 95.7833 291.111 95.1647C291.02 94.3399 290.882 93.5723 290.699 92.862C290.504 92.0486 290.316 91.2868 290.132 90.5765C289.961 89.9693 289.565 89.6999 288.946 89.7685L287.846 89.7337C287.318 89.6877 286.745 89.6989 286.126 89.7674C285.507 89.836 284.882 89.8529 284.251 89.8183L282.704 89.9896C282.509 90.1155 282.205 90.2013 281.792 90.247C281.38 90.2927 280.967 90.3384 280.554 90.384C280.233 90.3152 279.82 90.3609 279.316 90.5211C278.903 90.5667 278.496 90.664 278.095 90.8127C277.785 90.847 277.367 90.8411 276.839 90.7951C276.725 90.7034 276.519 90.7263 276.22 90.8636C276.014 90.8865 275.808 90.9093 275.601 90.9321C275.085 90.9892 274.524 91.1036 273.916 91.2752C273.4 91.3323 272.884 91.3894 272.368 91.4465C272.059 91.4807 271.749 91.515 271.44 91.5492C271.13 91.5835 270.826 91.6693 270.528 91.8067C269.817 91.9897 269.106 92.1727 268.395 92.3558C267.673 92.4357 266.951 92.5156 266.229 92.5955C265.185 92.6066 264.154 92.7208 263.133 92.9381C262.113 93.1554 261.092 93.3727 260.072 93.59L259.608 93.6413C259.115 93.9046 258.891 94.2425 258.937 94.6549C258.948 94.758 258.908 94.8668 258.816 94.9813C258.816 94.9813 258.822 95.0329 258.833 95.136C258.89 95.6515 258.988 96.0582 259.125 96.3561C259.308 97.0664 259.497 97.8283 259.692 98.6417C259.875 99.352 260.064 100.114 260.258 100.927L261.134 104.588C261.352 105.607 261.621 106.621 261.941 107.629C262.251 108.534 262.508 109.445 262.714 110.362C262.829 110.453 262.898 110.602 262.92 110.808C262.932 110.912 263.001 111.061 263.127 111.255C263.39 111.748 263.556 112.304 263.625 112.922C263.693 113.541 263.762 114.159 263.83 114.778C264.048 114.858 264.019 115.07 263.744 115.414C263.664 115.631 263.584 115.849 263.503 116.067C263.423 116.284 263.394 116.496 263.417 116.702C263.222 117.768 262.66 118.821 261.731 119.864C260.79 120.803 259.861 121.375 258.944 121.581C258.841 121.592 258.743 121.655 258.652 121.77C258.549 121.781 258.394 121.798 258.187 121.821C256.88 122.279 255.424 122.336 253.819 121.991L253.321 121.733C253.172 121.332 252.931 121.046 252.599 120.874C252.267 120.702 251.986 120.524 251.756 120.341C251.516 120.055 251.229 119.825 250.897 119.653C250.656 119.367 250.462 119.023 250.313 118.622C250.301 118.519 250.244 118.473 250.141 118.485C249.671 118.015 249.35 117.476 249.178 116.869C249.007 116.262 248.835 115.655 248.663 115.048L247.924 112.625C247.718 111.708 247.461 110.797 247.152 109.892C246.934 108.872 246.717 107.853 246.499 106.833L244.902 100.905C244.719 100.194 244.536 99.4839 244.353 98.7736C244.158 97.9602 243.969 97.1984 243.786 96.4881L242.773 91.5905C242.556 90.5709 242.338 89.5513 242.121 88.5317C241.903 87.5121 241.634 86.4982 241.314 85.49L241.159 84.0981C241.068 83.2733 240.925 82.4542 240.73 81.6408C240.639 80.8159 240.502 80.0484 240.318 79.3381C240.181 79.0402 240.095 78.7366 240.061 78.4273C240.026 78.118 239.992 77.8087 239.958 77.4994C239.901 76.9838 239.798 76.5256 239.649 76.1246C239.592 75.6091 239.483 75.0993 239.323 74.5952L238.498 71.3988C238.27 70.2761 237.932 69.1133 237.485 67.9103C237.142 66.6959 236.701 65.5445 236.162 64.456C235.887 63.8602 235.561 63.2702 235.183 62.6858C234.793 61.9983 234.455 61.3052 234.169 60.6063C233.871 59.8043 233.602 59.2601 233.361 58.9736C232.937 57.9768 232.829 56.9973 233.035 56.0352L233.707 53.6126C233.764 53.1888 234.034 52.7936 234.516 52.4272C234.688 52.0951 234.917 51.8088 235.204 51.5683C235.479 51.2248 235.76 50.9328 236.047 50.6923C236.242 50.5664 236.494 50.4863 236.803 50.452C237.124 50.5209 237.531 50.4236 238.025 50.1603L238.455 49.7996C239.326 49.1814 240.255 49.0786 241.24 49.4913C241.779 49.6405 242.318 49.7896 242.857 49.9387C243.499 50.0764 244.055 50.3801 244.525 50.85C245.155 50.8846 245.619 51.3029 245.917 52.1048L247.653 55.0438C248.672 56.7052 249.595 58.4295 250.42 60.2169C251.244 62.0042 251.874 63.9175 252.309 65.9567C252.492 66.667 252.681 67.4289 252.876 68.2423C253.162 68.9412 253.403 69.6973 253.597 70.5107L253.734 71.7479C253.791 72.2635 253.883 72.6186 254.009 72.8134C254.192 73.5237 254.33 74.2913 254.421 75.1161C254.616 75.9295 254.759 76.7486 254.85 77.5734L254.884 77.8827C255.045 78.3868 255.394 78.7134 255.933 78.8625C256.254 78.9314 256.575 79.0002 256.896 79.0691C257.205 79.0348 257.515 79.0006 257.824 78.9663C258.329 78.8061 258.742 78.7605 259.063 78.8293C259.475 78.7836 259.888 78.738 260.301 78.6923C261.023 78.6123 261.694 78.5381 262.313 78.4696C262.921 78.298 263.586 78.1722 264.308 78.0923L266.165 77.8868C266.475 77.8525 266.79 77.8698 267.111 77.9387C267.524 77.893 267.879 77.8015 268.177 77.6641C268.384 77.6413 268.538 77.6241 268.642 77.6127C268.836 77.4868 268.986 77.4181 269.089 77.4067C270.132 77.3956 271.169 77.333 272.201 77.2188C273.222 77.0015 274.248 76.8358 275.28 76.7216C276.323 76.7105 277.36 76.6479 278.392 76.5337C279.413 76.3164 280.439 76.1507 281.471 76.0365C282.296 75.9451 283.076 75.911 283.809 75.9342C284.635 75.8429 285.409 75.7572 286.131 75.6773C286.853 75.5974 287.18 75.2481 287.112 74.6295C287.054 74.114 286.992 73.5469 286.923 72.9283C286.854 72.3097 286.74 71.7483 286.58 71.2442C286.351 70.1215 286.133 69.1019 285.927 68.1854C285.813 67.1544 285.647 66.129 285.43 65.1094C285.167 63.6774 284.961 62.2912 284.812 60.9509C284.755 59.496 284.549 58.1099 284.195 56.7924C283.966 55.6696 283.737 54.5469 283.508 53.4242C283.382 52.2901 283.159 51.2189 282.838 50.2107L282.598 48.0456C282.553 47.6332 282.57 47.3181 282.65 47.1005C282.628 46.8943 282.61 46.7397 282.599 46.6366C282.679 46.4189 282.714 46.2586 282.702 46.1555C282.645 45.64 282.508 45.3421 282.29 45.2618L281.791 45.0039C281.126 44.66 280.972 44.2074 281.327 43.6462C281.591 43.1996 281.591 42.7299 281.328 42.2372C281.294 41.9279 281.322 41.716 281.414 41.6015C281.586 41.2693 281.758 40.9372 281.93 40.605C282.103 40.2729 282.217 39.8949 282.275 39.4711C282.459 38.3027 282.866 37.7358 283.496 37.7704C284.219 37.6905 284.694 37.7422 284.924 37.9256C285.038 38.0172 285.147 38.0574 285.25 38.046C285.342 37.9314 285.382 37.8226 285.371 37.7195C285.302 37.1009 285.572 36.7058 286.179 36.5342C286.787 36.3626 287.24 36.2081 287.538 36.0707L288.398 35.3493L288.862 35.2979C289.401 35.4471 289.843 35.6591 290.186 35.9342C290.622 36.0947 291.058 36.2553 291.493 36.4158C291.711 36.4961 291.992 36.6737 292.336 36.9488C293.161 37.7968 293.808 38.9254 294.278 40.3345C294.598 41.3427 294.913 42.2994 295.222 43.2045C295.532 44.1095 295.795 45.0719 296.012 46.0915C296.035 46.2977 296.058 46.5039 296.081 46.7101C296.207 46.9049 296.281 47.1054 296.304 47.3116L296.579 48.3771C296.716 49.6143 296.905 50.8458 297.145 52.0716C297.477 53.1829 297.763 54.3515 298.004 55.5773C298.118 55.669 298.193 55.8695 298.227 56.1788C298.204 56.9119 298.232 57.6394 298.312 58.3611C298.484 58.9683 298.667 59.6786 298.862 60.492C299.045 61.2023 299.188 62.0214 299.291 62.9493C299.485 63.7627 299.628 64.5818 299.72 65.4067C299.777 65.9222 299.84 66.4892 299.908 67.1078C300.08 67.715 300.246 68.2707 300.406 68.7748C300.567 69.2789 300.676 69.7887 300.733 70.3042C300.79 70.8197 300.847 71.3352 300.904 71.8507C300.961 72.3663 301.018 72.8818 301.076 73.3973C301.224 73.7983 301.379 74.2508 301.539 74.7549L301.608 75.3735C301.848 76.5993 302.089 77.8252 302.329 79.051C302.661 80.1623 302.947 81.3308 303.187 82.5566C303.302 82.6483 303.376 82.8488 303.411 83.1581C303.536 84.2923 303.771 85.4665 304.115 86.6809C304.447 87.7922 304.727 88.9092 304.956 90.0319L306.02 95.3934C306.032 95.4965 306.054 95.7028 306.089 96.0121C306.215 96.2069 306.289 96.4073 306.312 96.6136C306.438 96.8083 306.535 97.215 306.604 97.8337C306.707 98.7616 306.861 99.6838 307.067 100.6C307.376 101.505 307.634 102.416 307.84 103.333C308.161 104.341 308.43 105.355 308.647 106.374C308.865 107.394 309.14 108.459 309.472 109.571C309.815 110.785 310.21 111.994 310.657 113.197C311.104 114.4 311.499 115.608 311.842 116.823C311.991 117.224 312.094 117.682 312.151 118.198C312.3 118.599 312.403 119.057 312.46 119.572C312.517 120.088 312.42 120.621 312.167 121.17C312.076 121.285 311.995 121.502 311.926 121.823C311.949 122.029 311.869 122.247 311.685 122.476C311.594 122.591 311.553 122.699 311.565 122.802C311.576 122.906 311.53 122.963 311.427 122.974C311.026 123.123 310.693 123.421 310.429 123.867C310.166 124.314 309.839 124.663 309.449 124.915C309.082 125.373 308.549 125.745 307.849 126.032L306.662 126.633Z" fill="#CBAE7C"/>
<path d="M390.73 125C389.801 125.103 388.936 124.834 388.133 124.192C387.893 123.905 387.652 123.619 387.411 123.333C387.171 123.046 386.93 122.76 386.689 122.473C385.521 120.411 384.805 118.194 384.542 115.822L383.667 112.162C383.197 110.753 382.779 109.338 382.413 107.917C382.046 106.497 381.531 105.145 380.867 103.862L379.646 101.335C379.624 101.129 379.549 100.929 379.423 100.734C379.4 100.528 379.326 100.327 379.2 100.132L375.97 92.1926C375.844 91.9978 375.712 91.7515 375.574 91.4536C375.54 91.1443 375.408 90.898 375.179 90.7146C374.801 90.1302 374.475 89.5402 374.2 88.9444C374.016 88.2341 373.782 87.5295 373.495 86.8306C373.335 86.3265 373.18 85.874 373.031 85.473C372.871 84.9689 372.659 84.4705 372.396 83.9778C372.121 83.382 371.874 83.044 371.657 82.9637C371.427 82.7804 370.963 82.8318 370.264 83.1179C369.759 83.2781 369.203 83.444 368.595 83.6156C368.08 83.6727 367.575 83.8329 367.082 84.0962C366.681 84.245 366.176 84.4052 365.569 84.5768C365.053 84.6339 364.542 84.7425 364.038 84.9027L361.923 85.6065C361.418 85.7667 360.868 85.9841 360.271 86.2588C359.767 86.419 359.257 86.5277 358.741 86.5848L356.006 87.357C355.204 87.6546 354.35 87.9578 353.444 88.2668C352.538 88.5758 351.684 88.879 350.881 89.1766C348.473 90.0693 346.048 90.8073 343.606 91.3906C342.804 91.6882 342.379 92.1004 342.333 92.6273C342.23 92.6388 342.184 92.696 342.196 92.7991C341.759 94.5173 341.22 96.2468 340.577 97.9878C340.026 99.6143 339.43 101.298 338.787 103.039C338.626 103.474 338.466 103.91 338.305 104.345C338.236 104.666 338.121 105.044 337.961 105.479C337.88 105.696 337.806 105.966 337.737 106.286C337.657 106.504 337.576 106.722 337.496 106.939C336.957 107.729 336.744 108.64 336.859 109.671C336.824 110.301 336.686 110.943 336.445 111.595C336.193 112.145 335.941 112.695 335.688 113.245C335.619 113.565 335.43 113.743 335.12 113.777C334.719 113.926 334.324 114.126 333.934 114.378C333.544 114.63 333.102 114.888 332.609 115.151C332.311 115.288 332.002 115.323 331.681 115.254C331.463 115.173 331.193 115.099 330.872 115.03C330.643 114.847 330.425 114.766 330.219 114.789C329.073 114.812 328.173 114.233 327.52 113.053C326.512 111.494 325.761 109.908 325.269 108.292C325.12 107.891 325.08 107.53 325.149 107.21C325.321 106.878 325.441 106.551 325.51 106.23C326.084 105.749 326.393 105.245 326.439 104.719L326.422 104.564C326.274 103.224 326.395 101.958 326.785 100.767C327.267 99.4608 327.651 98.2181 327.938 97.0383C328.076 96.3968 328.266 95.7496 328.507 95.0968C328.747 94.4439 328.988 93.791 329.229 93.1382C329.562 92.3708 329.797 91.6663 329.935 91.0249C330.165 90.2689 330.343 89.5186 330.469 88.7741C330.687 87.915 330.602 87.1417 330.212 86.4543C329.937 85.8585 329.771 85.3028 329.714 84.7873C329.645 84.1687 329.628 83.5444 329.663 82.9143C329.537 81.7802 329.841 80.7551 330.576 79.8389C330.931 79.2777 331.298 78.8196 331.677 78.4646C332.147 77.9951 332.565 77.5313 332.932 77.0733C333.758 76.0426 334.343 74.7254 334.688 73.1218C334.952 71.7358 335.113 70.3612 335.171 68.998C335.32 67.5203 335.476 66.0942 335.637 64.7196C335.695 63.3564 335.758 62.0448 335.827 60.7847C335.988 59.4101 336.155 58.0871 336.327 56.8156C336.373 56.2886 336.425 55.8133 336.483 55.3894C336.632 54.8511 336.735 54.37 336.793 53.9462C337.011 53.0871 337.235 52.2796 337.464 51.5236C337.682 50.6645 337.797 49.8168 337.809 48.9806C337.97 48.5454 337.93 48.1845 337.689 47.898C337.529 47.3939 337.477 46.93 337.535 46.5061C337.695 46.0709 337.805 45.6413 337.862 45.2175C338.092 44.4615 338.218 43.717 338.241 42.9839C338.368 42.2393 338.546 41.489 338.775 40.7331C339.142 39.3356 339.435 38.2074 339.653 37.3483C339.963 36.3747 340.21 35.3037 340.394 34.1353C340.532 33.4939 340.675 32.904 340.824 32.3656C341.065 31.7127 341.203 31.0713 341.238 30.4412C341.445 29.4791 341.6 28.5226 341.703 27.5718C341.795 26.518 341.79 25.5271 341.687 24.5992C341.802 23.7515 341.946 23.1616 342.118 22.8294C342.519 21.7413 343.041 20.7964 343.683 19.9948C344.429 19.1817 345.123 18.3744 345.765 17.5727C346.247 17.2063 346.74 16.943 347.244 16.7828C347.737 16.5195 348.259 16.514 348.809 16.7662C349.245 16.9267 349.514 17.0013 349.617 16.9899C350.535 16.784 351.331 16.9046 352.008 17.3516C352.684 17.7986 353.268 18.3601 353.761 19.0361C353.99 19.2195 354.173 19.4601 354.311 19.758C354.448 20.0559 354.58 20.3023 354.706 20.4971C355.314 21.2648 355.663 22.0611 355.754 22.8859C355.8 23.2983 355.903 23.7565 356.063 24.2606C356.212 24.6616 356.367 25.1142 356.527 25.6183C356.905 26.2026 357.404 26.4606 358.023 26.392C358.115 26.2775 358.218 26.2661 358.333 26.3578C358.447 26.4495 358.51 26.5469 358.522 26.65C359.106 27.2115 359.335 27.8645 359.209 28.6091C359.094 29.4568 359.134 30.2873 359.328 31.1007C359.615 31.7996 359.907 32.55 360.204 33.352C360.731 34.3373 361.258 35.3227 361.785 36.3081C362.312 37.2934 362.84 38.2788 363.367 39.2641C364.008 40.3412 364.65 41.4182 365.291 42.4952C365.933 43.5723 366.523 44.655 367.061 45.7435C367.737 47.1298 368.413 48.5162 369.089 49.9025C369.868 51.2774 370.699 52.6467 371.581 54.0102L372.234 55.66C372.383 56.061 372.532 56.462 372.681 56.863C372.933 57.2525 373.133 57.6478 373.282 58.0488C373.523 58.3353 373.712 58.6275 373.849 58.9253C374.09 59.2118 374.325 59.4467 374.554 59.6301C375.15 60.2947 375.545 61.0337 375.74 61.8472C376.164 62.8439 376.731 63.7205 377.441 64.4768C377.682 64.7633 378.009 64.8837 378.421 64.838C379.946 64.4605 381.477 64.1346 383.013 63.8602C384.538 63.4827 386.052 63.0021 387.554 62.4184C388.654 61.9835 389.721 61.709 390.752 61.5948C392.713 61.3778 394.593 61.8482 396.392 63.0058C398.524 64.3354 399.773 66.1802 400.139 68.5401C400.196 69.0556 400.294 69.4623 400.431 69.7602C400.511 70.4819 400.368 71.0718 400.001 71.5299C399.932 71.8507 399.76 72.1828 399.484 72.5264C399.312 72.8585 399.14 73.1907 398.968 73.5228C398.807 73.9581 398.635 74.2902 398.452 74.5192L397.609 75.3953C397.529 75.6129 397.402 75.8878 397.23 76.2199C397.047 76.449 396.806 76.6322 396.508 76.7695C396.106 76.9183 395.711 77.1186 395.321 77.3705C394.92 77.5193 394.461 77.6222 393.945 77.6793C392.111 78.0911 390.454 78.2222 388.975 78.0728L386.499 78.3468C386.293 78.3696 385.994 78.507 385.604 78.7589C385.215 79.0107 385.037 79.2913 385.071 79.6007L385.14 80.2193C385.552 81.1129 385.867 82.0696 386.084 83.0892C386.394 83.9943 386.8 84.8364 387.305 85.6155C387.35 86.028 387.499 86.4289 387.751 86.8185C388.37 87.6894 388.891 88.6232 389.315 89.6199C389.727 90.5136 390.094 91.4645 390.415 92.4727C390.437 92.6789 390.586 93.0799 390.861 93.6757C391.251 94.3632 391.594 95.1079 391.892 95.9099C392.179 96.6088 392.419 97.3649 392.614 98.1783C392.682 98.7969 392.9 99.3469 393.267 99.8281C393.782 100.71 394.195 101.604 394.504 102.509C394.813 103.414 395.076 104.377 395.294 105.396C395.408 105.488 395.483 105.688 395.517 105.998C395.54 106.204 395.614 106.404 395.74 106.599C396.382 107.676 396.88 108.873 397.235 110.191C397.579 111.405 397.974 112.614 398.42 113.817C398.695 114.413 398.867 115.02 398.936 115.639C399.119 116.349 399.25 117.065 399.33 117.787C399.388 118.302 399.296 118.886 399.055 119.539C398.779 119.883 398.642 120.055 398.642 120.055C398.034 120.226 397.713 120.627 397.678 121.257L397.317 122.236C397.156 122.672 396.875 122.964 396.474 123.112C396.061 123.158 395.717 123.353 395.442 123.696C395.075 124.154 394.53 124.423 393.808 124.503C393.395 124.549 392.879 124.606 392.26 124.675C391.744 124.732 391.234 124.84 390.73 125ZM347.207 72.9888C347.815 72.8172 348.422 72.6456 349.03 72.4739C349.741 72.2909 350.503 72.1022 351.317 71.9077C351.822 71.7475 352.481 71.5702 353.295 71.3757C354.109 71.1813 354.872 70.9926 355.582 70.8095C356.282 70.5234 356.993 70.3404 357.715 70.2604C358.426 70.0774 359.137 69.8944 359.848 69.7113C360.444 69.4366 361.051 69.265 361.671 69.1965C362.278 69.0249 362.886 68.8533 363.494 68.6817C364.399 68.3727 364.703 67.8172 364.406 67.0152C364.211 66.2018 363.913 65.3998 363.512 64.6093C363.203 63.7042 362.653 62.9823 361.862 62.4436C361.633 62.2602 361.495 61.9623 361.45 61.5499L361.398 61.086C361.1 60.284 360.757 59.5393 360.367 58.8518C360.069 58.0498 359.726 57.3051 359.336 56.6176C359.039 55.8156 358.701 55.1225 358.322 54.5381C358.036 53.8392 357.698 53.146 357.309 52.4586L354.834 47.0966C354.445 46.4091 354.055 45.7216 353.666 45.0342C353.379 44.3353 353.093 43.6364 352.807 42.9375L352.274 42.3703L351.809 42.4217L351.551 42.9199C351.207 44.5235 350.759 46.1386 350.208 47.765C349.76 49.3801 349.376 51.0925 349.054 52.9024C349.077 53.1086 349.054 53.3721 348.985 53.6928C348.916 54.0135 348.847 54.3342 348.778 54.655C348.48 55.7317 348.193 56.9115 347.917 58.1944C347.745 59.4659 347.624 60.7316 347.555 61.9917C347.532 62.7249 347.508 63.458 347.485 64.1911C347.451 64.8212 347.37 65.5085 347.244 66.253L346.519 72.4387C346.428 72.5532 346.496 72.7021 346.725 72.8855C346.943 72.9658 347.104 73.0002 347.207 72.9888Z" fill="#CBAE7C"/>
<path d="M421.119 75.2984C420.351 74.966 419.789 74.6106 419.434 74.2325C418.826 73.4648 418.225 72.7486 417.629 72.084C417.125 71.3048 416.718 70.4627 416.409 69.5576C415.79 67.7474 415.424 65.8571 415.31 63.8868C415.379 63.5661 415.396 63.251 415.362 62.9417C415.328 62.6324 415.345 62.3174 415.414 61.9967C415.38 61.6874 415.346 61.3781 415.311 61.0687C415.266 60.6563 415.174 60.3012 415.036 60.0033C414.83 59.0868 414.624 58.1703 414.418 57.2538C414.316 56.3258 414.264 55.3922 414.265 54.4529C414.242 53.3073 414.174 52.219 414.059 51.188C414.048 50.1456 413.986 49.1088 413.871 48.0778C413.803 47.4592 413.74 46.8921 413.683 46.3766C413.717 45.7466 413.706 45.1738 413.649 44.6583C413.684 44.0282 413.667 43.4039 413.598 42.7853C413.53 42.1667 413.461 41.5481 413.392 40.9295L412.313 31.1862C412.255 30.6707 412.198 30.1552 412.141 29.6397C412.073 29.0211 411.958 28.4597 411.798 27.9556C411.786 27.8525 411.729 27.8067 411.626 27.8181C411.615 27.715 411.603 27.6119 411.592 27.5088C411.592 26.5694 411.443 25.6988 411.146 24.8968C410.836 23.9917 410.527 23.0866 410.218 22.1815L409.582 20.6864C409.296 19.9875 408.964 19.3459 408.585 18.7615C408.196 18.074 407.858 17.3809 407.572 16.682C405.223 12.4541 405.436 8.25577 408.212 4.08699C408.843 3.18224 409.594 2.42072 410.466 1.80244C411.337 1.18416 412.272 0.663277 413.269 0.239788C413.671 0.0910066 414.032 0.0510419 414.353 0.119894C414.662 0.0856386 415.024 0.0456739 415.436 0C415.86 0.0574275 416.239 0.172115 416.571 0.344063C416.995 0.40149 417.425 0.510471 417.861 0.671007C419.385 1.23286 420.726 2.02377 421.884 3.04372C422.56 3.49072 423.213 4.20119 423.844 5.17512L425.562 7.9594C426.341 9.33433 426.971 10.7779 427.452 12.2902C428.025 13.688 428.403 15.2117 428.586 16.8613L428.86 19.3358C429.077 20.3554 429.151 21.4953 429.082 22.7553C429.116 24.004 429.104 25.3099 429.046 26.6731L429.098 27.137C429.246 28.4774 429.234 29.7833 429.062 31.0548C428.993 32.3148 428.923 33.5749 428.854 34.835C428.877 35.9805 428.853 37.1833 428.784 38.4434C428.818 39.6921 428.846 40.8892 428.869 42.0347C428.811 42.4585 428.806 42.8767 428.851 43.2891C428.897 43.7015 428.943 44.1139 428.988 44.5263C429.034 44.9387 429.085 45.4027 429.143 45.9182C429.188 46.3306 429.188 46.8003 429.142 47.3272C429.085 47.751 429.079 48.1692 429.124 48.5816C429.159 48.8909 429.199 49.2517 429.244 49.6641C429.324 50.3859 429.347 51.0617 429.312 51.6918C429.381 52.3104 429.404 52.9863 429.381 53.7194C429.346 54.3494 429.317 55.031 429.294 55.7642C429.362 56.3828 429.385 57.0587 429.362 57.7918C429.373 58.8342 429.378 59.8251 429.378 60.7645C429.378 61.7038 429.429 62.6375 429.532 63.5654C429.577 63.9778 429.572 64.3959 429.514 64.8198C429.457 65.2436 429.399 65.6674 429.342 66.0912C429.399 66.6068 429.37 67.2883 429.255 68.136C429.186 68.4567 429.117 68.7775 429.048 69.0982C428.968 69.3158 428.888 69.5334 428.807 69.7511C428.761 70.278 428.452 70.7819 427.878 71.2628L427.156 71.8124C426.376 72.3162 425.665 72.9689 425.023 73.7705L424.627 74.4405C423.595 75.4941 422.425 75.78 421.119 75.2984ZM424.543 117.501C424.004 117.352 423.614 117.134 423.374 116.848C423.121 116.458 422.812 116.023 422.445 115.542C422.193 115.152 421.993 114.757 421.844 114.356C421.684 113.852 421.523 113.348 421.363 112.844C421.214 112.443 421.065 112.042 420.916 111.641C420.745 111.033 420.475 110.489 420.109 110.008C419.845 109.515 419.524 108.977 419.146 108.392C418.768 107.808 418.344 107.281 417.874 106.811L416.757 105.213C415.795 104.067 415.296 102.87 415.262 101.621C415.228 101.312 415.148 101.06 415.022 100.865C414.839 99.2151 414.971 97.5828 415.419 95.9677C415.649 94.2724 416.527 92.7663 418.052 91.4495C418.235 91.2204 418.425 91.0429 418.619 90.917C418.814 90.7911 419.009 90.6651 419.204 90.5392C419.973 89.9323 420.821 89.5775 421.75 89.4747C423.297 89.3035 424.667 89.4128 425.86 89.8027L427.149 90.1296C428.124 90.4393 428.903 90.8749 429.487 91.4364L431.086 93.1381C431.682 93.8027 431.974 94.5532 431.962 95.3894C432.054 96.2142 432.174 96.8271 432.323 97.2281C432.472 97.6291 432.58 98.1389 432.649 98.7575C432.706 99.273 432.815 99.7828 432.975 100.287C433.021 100.699 433.004 101.014 432.923 101.232C432.728 102.297 432.309 103.231 431.667 104.032L430.841 105.063C430.474 105.521 430.17 106.077 429.929 106.73C429.86 107.05 429.745 107.428 429.585 107.863C429.413 108.196 429.241 108.528 429.068 108.86C428.919 109.398 428.787 110.091 428.672 110.939L428.448 113.155C428.471 113.362 428.442 113.574 428.362 113.791C428.396 114.101 428.379 114.416 428.31 114.736L428.224 115.372C427.581 117.113 426.354 117.823 424.543 117.501Z" fill="#CBAE7C"/>
</svg>
